HIERARCHY
ROOT Hips
{
	OFFSET 0.000000 0.000000 0.000000
	CHANNELS 6 Xposition Yposition Zposition Zrotation Yrotation Xrotation 
	JOINT LeftUpLeg_virtual
	{
		OFFSET 0.000000 0.000000 0.000000
		CHANNELS 3 Zrotation Yrotation Xrotation
		JOINT LeftUpLeg
		{
			OFFSET 10.205400 -3.823500 0.155100
			CHANNELS 3 Zrotation Yrotation Xrotation
			JOINT LeftLeg
			{
				OFFSET 0.708757 -12.982077 0.567790
				CHANNELS 3 Zrotation Yrotation Xrotation
				JOINT LeftFoot
				{
					OFFSET -0.708756 -10.717838 -2.184338
					CHANNELS 3 Zrotation Yrotation Xrotation
					JOINT LeftToeBase
					{
						OFFSET 0.108149 -7.191104 7.560241
						CHANNELS 3 Zrotation Yrotation Xrotation
						End Site
						{
							OFFSET 0.000000 0.000000 0.000000
						}
					}
				}
			}
		}
	}
	JOINT RightUpLeg_virtual
	{
		OFFSET 0.000000 0.000000 0.000000
		CHANNELS 3 Zrotation Yrotation Xrotation
		JOINT RightUpLeg
		{
			OFFSET -10.205400 -3.823500 0.005500
			CHANNELS 3 Zrotation Yrotation Xrotation
			JOINT RightLeg
			{
				OFFSET -0.708756 -12.982134 0.610632
				CHANNELS 3 Zrotation Yrotation Xrotation
				JOINT RightFoot
				{
					OFFSET 0.708754 -10.717769 -1.945823
					CHANNELS 3 Zrotation Yrotation Xrotation
					JOINT RightToeBase
					{
						OFFSET -0.108140 -7.191069 7.372968
						CHANNELS 3 Zrotation Yrotation Xrotation
						End Site
						{
							OFFSET 0.000000 0.000000 0.000000
						}
					}
				}
			}
		}
	}
	JOINT Spine_virtual
	{
		OFFSET 0.000000 0.000000 0.000000
		CHANNELS 3 Zrotation Yrotation Xrotation
		JOINT Spine
		{
			OFFSET 0.000000 6.876099 0.125700
			CHANNELS 3 Zrotation Yrotation Xrotation
			JOINT Spine1
			{
				OFFSET 0.000000 8.022060 0.146608
				CHANNELS 3 Zrotation Yrotation Xrotation
				JOINT Spine2
				{
					OFFSET 0.000000 9.168068 0.167552
					CHANNELS 3 Zrotation Yrotation Xrotation
					JOINT Neck_virtual
					{
						OFFSET 0.000000 0.000000 0.000000
						CHANNELS 3 Zrotation Yrotation Xrotation
						JOINT Neck
						{
							OFFSET 0.000000 10.314075 0.188496
							CHANNELS 3 Zrotation Yrotation Xrotation
							JOINT Head
							{
								OFFSET 0.000000 7.643700 -2.377400
								CHANNELS 3 Zrotation Yrotation Xrotation
								End Site
								{
									OFFSET 0.000000 0.000000 0.000000
								}
							}
						}
					}
					JOINT LeftShoulder_virtual
					{
						OFFSET 0.000000 0.000000 0.000000
						CHANNELS 3 Zrotation Yrotation Xrotation
						JOINT LeftShoulder
						{
							OFFSET 4.392200 8.824978 0.174984
							CHANNELS 3 Zrotation Yrotation Xrotation
							JOINT LeftArm
							{
								OFFSET 8.771219 -2.981674 -0.026999
								CHANNELS 3 Zrotation Yrotation Xrotation
								JOINT LeftForeArm
								{
									OFFSET 8.512804 0.000000 -0.000000
									CHANNELS 3 Zrotation Yrotation Xrotation
									JOINT LeftHand
									{
										OFFSET 18.484802 0.000000 -0.000000
										CHANNELS 3 Zrotation Yrotation Xrotation
										End Site
										{
											OFFSET 0.000000 0.000000 0.000000
										}
									}
								}
							}
						}
					}
					JOINT RightShoulder_virtual
					{
						OFFSET 0.000000 0.000000 0.000000
						CHANNELS 3 Zrotation Yrotation Xrotation
						JOINT RightShoulder
						{
							OFFSET -4.392200 8.824993 0.141379
							CHANNELS 3 Zrotation Yrotation Xrotation
							JOINT RightArm
							{
								OFFSET -8.771282 -2.981682 -0.094208
								CHANNELS 3 Zrotation Yrotation Xrotation
								JOINT RightForeArm
								{
									OFFSET -8.494598 0.000000 0.000000
									CHANNELS 3 Zrotation Yrotation Xrotation
									JOINT RightHand
									{
										OFFSET -18.483803 0.000000 0.000001
										CHANNELS 3 Zrotation Yrotation Xrotation
										End Site
										{
											OFFSET 0.000000 0.000000 0.000000
										}
									}
								}
							}
						}
					}
				}
			}
		}
	}
}
MOTION
Frames: 9
Frame Time: 0.033333
4.119575 36.235806 -6.158661 179.922728 -6.130599 179.747220 0.395395 -3.336312 13.732679 -0.085809 -11.067180 -16.338859 3.618351 4.816356 12.344492 -0.344068 1.591262 10.172722 0.000000 0.000000 0.000000 5.491019 -3.574653 13.208673 -4.459051 8.703197 -13.501548 -4.282464 4.932819 16.111165 11.702914 5.644126 1.317637 0.000000 0.000000 0.000000 3.133440 -0.175886 1.985831 0.918830 -2.538257 -16.035686 -0.727066 -2.279363 10.314267 -0.006165 0.038628 -0.023181 -1.046479 -0.050370 11.874978 -7.399470 7.186854 17.006630 0.000000 0.000000 0.000000 0.643280 0.682915 8.701997 -16.349034 -12.470379 4.362666 -43.589827 -4.035030 4.037934 -0.060166 -51.590123 3.849513 0.000000 0.000000 0.000000 -3.538755 1.905619 8.269558 28.802628 9.432309 7.585772 40.573335 8.281340 7.120162 -3.088341 36.698313 -2.357154 0.000000 0.000000 0.000000 
4.154759 36.238216 -6.173693 -179.978913 -6.015428 179.637582 0.536021 -3.273814 13.734544 -0.126218 -10.922868 -16.430677 3.783618 4.907794 12.245301 -0.408844 1.683523 10.493244 0.000000 0.000000 0.000000 5.549072 -3.704786 13.048984 -4.275076 8.569252 -13.676692 -4.003334 4.595376 15.884706 11.949209 5.494369 0.912278 0.000000 0.000000 0.000000 3.185917 -0.158407 1.987052 1.010260 -2.440073 -15.990776 -0.715207 -2.252198 10.351218 0.016872 0.071714 -0.054582 -1.115947 0.056466 11.937239 -7.386358 7.067042 17.112677 0.000000 0.000000 0.000000 0.557512 0.694734 8.733624 -16.340413 -12.433343 4.387356 -43.597589 -3.911684 4.139590 -0.055706 -51.632805 3.966918 0.000000 0.000000 0.000000 -3.599832 1.923583 8.282427 28.895477 9.391132 7.600030 40.700872 8.291891 7.541038 -3.147941 36.587411 -2.403519 0.000000 0.000000 0.000000 
4.202482 36.233711 -6.197280 -179.962111 -6.152181 179.662594 0.572031 -3.381663 13.786081 -0.034988 -11.029109 -16.513000 3.801850 4.838131 12.312801 -0.453839 1.703621 10.523005 0.000000 0.000000 0.000000 5.566821 -3.797897 13.062253 -4.153027 8.482577 -13.689050 -4.014425 4.547279 15.875453 11.900216 5.472193 0.935554 0.000000 0.000000 0.000000 3.235474 -0.206201 1.910513 1.064748 -2.350215 -15.939490 -0.751930 -2.209387 10.375173 -0.036393 0.067274 -0.048406 -1.113403 -0.030120 11.942744 -7.329323 6.889936 17.207244 0.000000 0.000000 0.000000 0.580611 0.718920 8.682037 -16.367942 -12.376221 4.461001 -43.831499 -3.094097 4.292770 -0.010743 -51.412094 4.120189 0.000000 0.000000 0.000000 -3.604923 1.926715 8.267702 29.066731 9.299091 7.603676 40.902619 8.000313 8.025177 -3.102362 36.277812 -2.284090 0.000000 0.000000 0.000000 
4.260762 36.221836 -6.228382 -179.987765 -6.271987 179.655586 0.568410 -3.467514 13.855213 0.074033 -11.183694 -16.591043 3.859881 4.822023 12.426723 -0.524817 1.717718 10.467279 0.000000 0.000000 0.000000 5.523571 -3.894976 13.091100 -3.986601 8.407200 -13.701400 -4.041637 4.511435 15.886885 11.837174 5.453283 0.967022 0.000000 0.000000 0.000000 3.304643 -0.290858 1.967569 1.050042 -2.256718 -15.897656 -0.754740 -2.189982 10.339160 0.024097 0.064514 -0.039397 -1.121782 -0.213924 11.886689 -7.175519 6.578883 17.281109 0.000000 0.000000 0.000000 0.557087 0.809332 8.693131 -16.396719 -12.172807 4.438758 -44.227309 -1.773489 4.720082 -0.037547 -50.619799 4.454763 0.000000 0.000000 0.000000 -3.630461 2.012935 8.207010 29.224771 9.095444 7.680495 41.103512 7.368755 8.386584 -3.171777 35.880350 -2.314159 0.000000 0.000000 0.000000 
4.320120 36.204926 -6.268311 179.998543 -6.436054 179.694368 0.614110 -3.648180 13.869895 0.119022 -11.395127 -16.664798 4.017729 4.686729 12.507195 -0.607164 1.767671 10.465329 0.000000 0.000000 0.000000 5.493417 -4.041861 13.129907 -3.810888 8.376661 -13.726963 -4.062515 4.503288 15.922373 11.782215 5.383686 0.956365 0.000000 0.000000 0.000000 3.247038 -0.391138 1.981436 1.271689 -2.121236 -15.771592 -0.735832 -2.173992 10.324862 0.004939 0.049977 -0.021496 -1.108995 0.227561 11.745591 -7.083990 6.591937 17.374758 0.000000 0.000000 0.000000 0.489758 0.874568 8.592276 -16.472678 -11.969775 4.514692 -44.784946 0.231508 5.285146 0.056739 -49.345965 4.712880 0.000000 0.000000 0.000000 -3.673241 2.038520 8.115768 29.418407 8.841473 7.774214 41.454761 6.244851 8.674415 -3.282874 35.224337 -2.400041 0.000000 0.000000 0.000000 
4.371773 36.182114 -6.320132 179.972302 -6.504208 179.689600 0.624032 -3.742337 13.907129 0.135906 -11.628190 -16.649793 4.192248 4.581765 12.696313 -0.680314 1.814363 10.337283 0.000000 0.000000 0.000000 5.432135 -4.138424 13.162936 -3.634865 8.409360 -13.754420 -4.086811 4.509028 15.999788 11.699194 5.361866 0.933805 0.000000 0.000000 0.000000 3.341045 -0.472318 2.055452 1.297499 -1.994999 -15.613481 -0.757977 -2.147125 10.282341 -0.013147 0.071341 -0.005791 -1.060042 0.049771 11.676943 -7.051158 6.524169 17.541126 0.000000 0.000000 0.000000 0.562438 0.835669 8.540434 -16.550023 -11.719398 4.781402 -45.525799 2.562242 5.831032 0.385837 -47.302902 4.809666 0.000000 0.000000 0.000000 -3.601434 1.986262 8.018065 29.567117 8.418790 7.716142 41.903931 4.531615 8.724491 -3.283231 34.360189 -2.352813 0.000000 0.000000 0.000000 
4.420745 36.160580 -6.391383 179.958382 -6.621370 179.674697 0.649703 -3.919599 13.966921 0.121278 -11.849080 -16.581667 4.435760 4.504646 12.957144 -0.726840 1.861808 10.055573 0.000000 0.000000 0.000000 5.400728 -4.271286 13.216481 -3.465882 8.465786 -13.775266 -4.092318 4.519528 16.114967 11.601659 5.318045 0.884339 0.000000 0.000000 0.000000 3.415800 -0.561737 2.130122 1.421177 -1.908255 -15.475745 -0.766717 -2.146527 10.221021 -0.007947 0.030859 0.025827 -1.075732 0.081698 11.548581 -7.033790 6.244599 17.738047 0.000000 0.000000 0.000000 0.555990 0.903511 8.422728 -16.553255 -11.348740 4.905878 -46.472453 5.338943 6.186268 0.715673 -44.659868 4.929216 0.000000 0.000000 0.000000 -3.627079 2.063383 7.912526 29.612702 7.936092 7.795664 42.428705 2.326079 8.453063 -3.357074 33.213858 -2.397347 0.000000 0.000000 0.000000 
4.463894 36.145061 -6.495148 -179.971141 -6.634839 179.694204 0.716035 -4.044383 14.035749 0.095021 -12.051999 -16.536373 4.631590 4.453035 13.198318 -0.749881 1.897252 9.903935 0.000000 0.000000 0.000000 5.446127 -4.365667 13.271645 -3.292344 8.602289 -13.779268 -4.097934 4.677991 16.266727 11.385465 5.242609 0.790906 0.000000 0.000000 0.000000 3.517291 -0.643179 2.097767 1.596245 -1.745559 -15.246186 -0.750864 -2.136368 10.156239 0.004987 0.074907 -0.059293 -1.147401 0.105399 11.611984 -7.099924 6.031812 17.956596 0.000000 0.000000 0.000000 0.486232 0.997426 8.466376 -16.462499 -10.927924 4.813566 -47.626527 8.367515 6.213878 1.018281 -41.446756 5.071512 0.000000 0.000000 0.000000 -3.690555 2.166194 7.875148 29.570402 7.277194 7.848135 43.054982 -0.340211 8.053491 -3.552601 31.972785 -2.619980 0.000000 0.000000 0.000000 
4.506639 36.135521 -6.626679 -179.978176 -6.656745 179.719339 0.643775 -4.175598 14.126750 0.171013 -12.089329 -16.511043 4.808562 4.397065 13.608090 -0.809397 1.845269 9.478163 0.000000 0.000000 0.000000 5.455147 -4.452581 13.338101 -3.099817 8.710414 -13.713779 -4.168828 4.827740 16.427426 11.110010 5.269614 0.670481 0.000000 0.000000 0.000000 3.545404 -0.727872 2.052271 1.751661 -1.621886 -15.029145 -0.773680 -2.120777 10.097267 -0.014766 0.055013 -0.062889 -1.121162 0.047284 11.531639 -7.205040 5.846706 18.118352 0.000000 0.000000 0.000000 0.534112 0.978336 8.411112 -16.264286 -10.432424 4.958847 -49.047732 11.527544 5.751162 1.416910 -37.924356 5.058523 0.000000 0.000000 0.000000 -3.668860 2.164390 7.803737 29.390178 6.601792 7.800207 43.897510 -3.261786 7.171711 -3.669087 30.607888 -2.811873 0.000000 0.000000 0.000000 
